<svg xmlns="http://www.w3.org/2000/svg" width="21" height="20" viewBox="0 0 21 20" fill="none">
  <path d="M20.1188 11.0534H1.83126C1.3724 11.0534 1 10.6801 1 10.2201C1 9.76004 1.3724 9.38672 1.83126 9.38672H20.1188C20.5777 9.38672 20.9501 9.76004 20.9501 10.2201C20.9501 10.6801 20.5777 11.0534 20.1188 11.0534Z" fill="#8C7A6E"/>
  <path d="M20.1188 4.66667H1.83126C1.3724 4.66667 1 4.29333 1 3.83333C1 3.37332 1.3724 3 1.83126 3H20.1188C20.5777 3 20.9501 3.37332 20.9501 3.83333C20.9501 4.29333 20.5777 4.66667 20.1188 4.66667Z" fill="#8C7A6E"/>
  <path d="M20.1188 17.4438H1.83126C1.3724 17.4438 1 17.0704 1 16.6104C1 16.1504 1.3724 15.7771 1.83126 15.7771H20.1188C20.5777 15.7771 20.9501 16.1504 20.9501 16.6104C20.9501 17.0704 20.5777 17.4438 20.1188 17.4438Z" fill="#8C7A6E"/>
</svg>